<svg width="432" height="449" viewBox="0 0 432 449" fill="none" xmlns="http://www.w3.org/2000/svg">
<rect width="432" height="449" fill="black"/>
<path d="M58.3892 332.053C58.3892 332.053 50.6132 323.271 55.2096 318.179C59.8061 313.088 63.3312 320.631 63.3312 320.631C63.3312 320.631 57.3956 309.612 63.3312 306.101C69.2669 302.59 70.874 311.489 70.874 311.489C70.874 311.489 69.3447 299.932 77.3021 299.285C85.2596 298.639 83.6093 308.203 83.6093 308.203C83.6093 308.203 88.3267 298.953 94.5043 302.815C100.682 306.676 95.472 314.893 95.472 314.893C95.472 314.893 100.976 308.84 104.112 313.231C107.248 317.623 102.246 321.574 102.246 321.574C102.246 321.574 108.199 319.598 109.089 325.345C109.979 331.093 104.389 332.026 104.389 332.026L58.3892 332.053Z" fill="#263238"/>
<path d="M291.747 332.053C291.747 332.053 279.841 318.655 286.9 310.888C293.959 303.12 299.298 314.623 299.298 314.623C299.298 314.623 290.235 297.804 299.298 292.443C308.362 287.082 310.798 300.704 310.798 300.704C310.798 300.704 308.465 283.014 320.605 282.044C332.744 281.074 330.23 295.657 330.23 295.657C330.23 295.657 337.435 281.541 346.862 287.468C356.288 293.395 348.348 305.913 348.348 305.913C348.348 305.913 356.737 296.672 361.515 303.371C366.293 310.07 358.655 316.096 358.655 316.096C358.655 316.096 367.744 313.088 369.11 321.852C370.475 330.617 361.93 332.044 361.93 332.044L291.747 332.053Z" fill="#263238"/>
<path d="M201.537 277.94H208.328L222.221 236.363H215.43L201.537 277.94Z" fill="#393939"/>
<path d="M110.981 277.94H117.772L131.665 236.363H124.874L110.981 277.94Z" fill="#393939"/>
<path d="M388.843 332.053H40.2019V343.036H388.843V332.053Z" fill="#393939"/>
<path d="M80.9481 332.053H40.2019V343.036H80.9481V332.053Z" fill="#4F4F4F"/>
<path d="M162.449 332.053H121.703V343.036H162.449V332.053Z" fill="#4F4F4F"/>
<path d="M243.95 332.053H203.204V343.036H243.95V332.053Z" fill="#4F4F4F"/>
<path d="M325.452 332.053H284.705V343.036H325.452V332.053Z" fill="#4F4F4F"/>
<path d="M388.843 332.053H366.206V343.036H388.843V332.053Z" fill="#4F4F4F"/>
<path d="M353.203 165.501H325.089C324.964 164.422 325.214 163.331 325.794 162.426C326.374 161.521 327.245 160.86 328.251 160.562C331.992 159.135 333.737 161.281 333.737 161.281C333.282 160.714 333.032 159.999 333.032 159.26C333.032 158.522 333.282 157.807 333.737 157.24C335.292 154.905 339.621 156.342 339.621 156.342C339.621 156.342 338.351 153.72 341.159 151.322C343.967 148.924 348.123 151.322 348.123 151.322C348.123 151.322 348.451 146.661 353.938 147.407C359.424 148.152 358.819 151.986 358.819 151.986C358.819 151.986 360.305 150.613 363.485 152.166C364.345 152.503 365.073 153.126 365.558 153.938C366.042 154.75 366.255 155.706 366.163 156.656C366.163 156.656 367.788 154.573 371.218 155.929C374.648 157.285 373.706 160.131 373.706 160.131C373.706 160.131 377.611 158.335 379.607 160.571C382 163.265 380.143 165.51 380.143 165.51L353.203 165.501Z" fill="#393939"/>
<path d="M206.496 154.456H178.399C178.272 153.377 178.52 152.287 179.099 151.382C179.677 150.476 180.547 149.815 181.552 149.517C185.293 148.089 187.039 150.235 187.039 150.235C186.586 149.666 186.338 148.95 186.338 148.21C186.338 147.471 186.586 146.755 187.039 146.185C188.603 143.86 192.931 145.287 192.931 145.287C192.931 145.287 191.652 142.665 194.46 140.268C197.268 137.87 201.433 140.268 201.433 140.268C201.433 140.268 201.761 135.616 207.248 136.361C212.734 137.107 212.129 140.941 212.129 140.941C212.129 140.941 213.607 139.567 216.786 141.121C217.647 141.458 218.377 142.08 218.862 142.892C219.348 143.704 219.563 144.659 219.473 145.611C219.473 145.611 221.089 143.518 224.519 144.874C227.949 146.23 227.016 149.086 227.016 149.086C227.016 149.086 230.913 147.29 232.908 149.526C235.31 152.22 233.444 154.465 233.444 154.465L206.496 154.456Z" fill="#393939"/>
<path d="M264.574 97.5408H252.003C251.076 97.5619 250.195 97.9607 249.548 98.6511C248.902 99.3414 248.542 100.268 248.547 101.232V110.741C248.553 111.197 248.648 111.646 248.828 112.061C249.008 112.477 249.268 112.849 249.592 113.156C249.916 113.462 250.297 113.696 250.712 113.843C251.127 113.99 251.566 114.047 252.003 114.01H253.904L252.945 117.764L256.401 114.01H264.565C266.458 114.01 268.186 112.708 268.186 110.741V101.232C268.146 100.255 267.752 99.3303 267.081 98.645C266.41 97.9597 265.514 97.565 264.574 97.5408Z" fill="#393939"/>
<path d="M181.924 93.4369H132.875C132.641 91.5214 133.065 89.5819 134.072 87.9592C135.079 86.3365 136.603 85.1345 138.378 84.5647C144.91 82.0772 147.96 85.6961 147.96 85.6961C147.96 85.6961 145.238 82.6429 147.96 78.575C150.682 74.5071 158.233 76.9406 158.233 76.9406C158.233 76.9406 156.013 72.3519 160.911 68.1672C165.81 63.9825 173.068 68.1672 173.068 68.1672C173.068 68.1672 173.638 60.0403 183.22 61.3334C192.802 62.6265 191.739 69.3346 191.739 69.3346C191.739 69.3346 194.331 66.9279 199.869 69.6489C205.407 72.3698 204.543 77.4974 204.543 77.4974C204.543 77.4974 207.36 73.8425 213.408 76.2043C219.456 78.566 217.728 83.514 217.728 83.514C217.728 83.514 224.545 80.5865 228.018 84.5287C232.209 89.2792 228.951 93.401 228.951 93.401L181.924 93.4369Z" fill="#393939"/>
<path d="M93.2256 138.148H50.6736C50.6736 138.148 49.8096 132.823 55.4515 130.668C61.0934 128.513 63.7632 131.755 63.7632 131.755C63.7632 131.755 61.4045 129.159 63.7632 125.63C66.1219 122.101 72.6797 124.238 72.6797 124.238C72.6797 124.238 70.753 120.269 74.9952 116.641C79.2374 113.013 85.5446 116.641 85.5446 116.641C85.5446 116.641 86.0458 109.592 94.3488 110.723C102.652 111.855 101.745 117.656 101.745 117.656C101.745 117.656 103.982 115.573 108.795 117.925C113.607 120.278 112.856 124.741 112.856 124.741C112.856 124.741 115.309 121.571 120.502 123.628C125.695 125.684 124.278 129.994 124.278 129.994C124.278 129.994 130.188 127.247 133.203 130.668C136.832 134.79 134.006 138.148 134.006 138.148H93.2256Z" fill="#393939"/>
<path d="M283.055 206.989H254.949C254.823 205.91 255.071 204.82 255.649 203.915C256.227 203.009 257.097 202.348 258.103 202.05C261.844 200.622 263.589 202.768 263.589 202.768C263.135 202.201 262.887 201.486 262.887 200.748C262.887 200.01 263.135 199.295 263.589 198.727C265.144 196.393 269.473 197.829 269.473 197.829C269.473 197.829 268.203 195.207 271.011 192.81C273.819 190.412 277.975 192.81 277.975 192.81C277.975 192.81 278.303 188.149 283.798 188.894C289.293 189.64 288.68 193.474 288.68 193.474C288.68 193.474 290.157 192.1 293.337 193.654C294.197 193.991 294.925 194.614 295.409 195.426C295.894 196.238 296.107 197.193 296.015 198.144C296.015 198.144 297.639 196.06 301.069 197.416C304.5 198.772 303.566 201.619 303.566 201.619C303.566 201.619 307.463 199.823 309.459 202.059C311.861 204.753 309.995 206.998 309.995 206.998L283.055 206.989Z" fill="#393939"/>
<path d="M214.523 277.94H67.3661V288.132H214.523V277.94Z" fill="#393939"/>
<path d="M225.081 263.814H93.7786V274.007H225.081V263.814Z" fill="#393939"/>
<path d="M236.408 243.43H105.106V253.622H236.408V243.43Z" fill="#393939"/>
<path d="M243.959 226.17H112.648V236.363H243.959V226.17Z" fill="#393939"/>
<path d="M80.1964 288.132H73.4054V332.053H80.1964V288.132Z" fill="#393939"/>
<path d="M80.1964 288.132H73.4054V296.762H80.1964V288.132Z" fill="#393939"/>
<path d="M213.011 288.132H206.219V332.053H213.011V288.132Z" fill="#393939"/>
<path d="M213.011 288.132H206.219V296.762H213.011V288.132Z" fill="#393939"/>
<path d="M432 343.395H0V343.62H432V343.395Z" fill="#EBEBEB"/>
<path d="M388.714 357.844H360.098V358.069H388.714V357.844Z" fill="#EBEBEB"/>
<path d="M359.234 349.511H342.654V349.735H359.234V349.511Z" fill="#EBEBEB"/>
<path d="M383.521 390.1C383.521 394.276 308.517 397.652 216 397.652C123.483 397.652 48.479 394.276 48.479 390.1C48.479 385.924 123.483 382.548 216 382.548C308.517 382.548 383.521 385.933 383.521 390.1Z" fill="#F5F5F5"/>
<path d="M375.762 61.2077H389.664C389.664 61.2077 388.523 69.5052 377.819 71.84L375.762 61.2077Z" fill="#263238"/>
<path d="M375.762 83.2087H389.664C389.664 83.2087 388.523 91.5062 377.819 93.8679L375.762 83.2087Z" fill="#263238"/>
<path d="M375.762 105.21H389.664C389.664 105.21 388.523 113.507 377.819 115.869L375.762 105.21Z" fill="#263238"/>
<path opacity="0.1" d="M375.762 61.2077H389.664C389.664 61.2077 388.523 69.5052 377.819 71.84L375.762 61.2077Z" fill="white"/>
<path opacity="0.1" d="M375.762 83.2087H389.664C389.664 83.2087 388.523 91.5062 377.819 93.8679L375.762 83.2087Z" fill="white"/>
<path opacity="0.1" d="M375.762 105.21H389.664C389.664 105.21 388.523 113.507 377.819 115.869L375.762 105.21Z" fill="white"/>
<path d="M375.84 52.982H349.92C347.534 52.982 345.6 54.9922 345.6 57.472V128.414C345.6 130.894 347.534 132.904 349.92 132.904H375.84C378.226 132.904 380.16 130.894 380.16 128.414V57.472C380.16 54.9922 378.226 52.982 375.84 52.982Z" fill="#263238"/>
<path opacity="0.1" d="M361.152 52.982H349.92C347.534 52.982 345.6 54.9922 345.6 57.472V128.414C345.6 130.894 347.534 132.904 349.92 132.904H361.152C363.538 132.904 365.472 130.894 365.472 128.414V57.472C365.472 54.9922 363.538 52.982 361.152 52.982Z" fill="white"/>
<path d="M347.76 48.2046H351.06C352.132 48.207 353.159 48.6505 353.917 49.4382C354.675 50.2258 355.102 51.2934 355.104 52.4073V138.373C355.102 139.487 354.675 140.554 353.917 141.342C353.159 142.13 352.132 142.573 351.06 142.575H347.76" stroke="#407BFF" stroke-width="5" stroke-miterlimit="10"/>
<path d="M360.34 359.326C360.117 359.007 359.824 358.749 359.487 358.571C359.149 358.393 358.775 358.301 358.396 358.302H337.124C336.745 358.301 336.372 358.393 336.034 358.571C335.696 358.749 335.403 359.007 335.18 359.326L327.655 369.976H367.865L360.34 359.326Z" fill="#407BFF"/>
<path d="M350.784 43.553C350.784 42.7194 350.465 41.92 349.898 41.3306C349.331 40.7411 348.562 40.41 347.76 40.41C346.958 40.41 346.189 40.7411 345.622 41.3306C345.055 41.92 344.736 42.7194 344.736 43.553C344.741 43.7035 344.756 43.8534 344.779 44.002H344.736V358.302H350.784V44.002C350.793 43.8525 350.793 43.7025 350.784 43.553Z" fill="#407BFF"/>
<path d="M347.76 73.0523H343.241C342.49 73.057 341.772 73.3704 341.242 73.924C340.713 74.4775 340.416 75.2263 340.416 76.0067V144.443C340.416 144.831 340.49 145.215 340.633 145.573C340.776 145.93 340.985 146.256 341.249 146.529C341.513 146.803 341.827 147.02 342.171 147.167C342.516 147.315 342.886 147.39 343.259 147.389H347.777" stroke="#407BFF" stroke-width="5" stroke-miterlimit="10"/>
<path d="M355.104 81.718H328.32C325.934 81.718 324 83.7282 324 86.208V135.598C324 138.078 325.934 140.088 328.32 140.088H355.104C357.49 140.088 359.424 138.078 359.424 135.598V86.208C359.424 83.7282 357.49 81.718 355.104 81.718Z" fill="#263238"/>
<path opacity="0.2" d="M355.104 81.718H328.32C325.934 81.718 324 83.7282 324 86.208V135.598C324 138.078 325.934 140.088 328.32 140.088H355.104C357.49 140.088 359.424 138.078 359.424 135.598V86.208C359.424 83.7282 357.49 81.718 355.104 81.718Z" fill="white"/>
<path opacity="0.1" d="M350.784 81.718H328.32C325.934 81.718 324 83.7282 324 86.208V135.598C324 138.078 325.934 140.088 328.32 140.088H350.784C353.17 140.088 355.104 138.078 355.104 135.598V86.208C355.104 83.7282 353.17 81.718 350.784 81.718Z" fill="white"/>
<path d="M340.14 110.831C345.613 110.831 350.05 106.22 350.05 100.531C350.05 94.8425 345.613 90.231 340.14 90.231C334.666 90.231 330.229 94.8425 330.229 100.531C330.229 106.22 334.666 110.831 340.14 110.831Z" fill="#407BFF"/>
<path d="M330.229 124.301C330.221 126.34 330.795 128.336 331.879 130.036C332.962 131.735 334.507 133.063 336.317 133.849C338.127 134.636 340.121 134.846 342.046 134.454C343.971 134.061 345.741 133.084 347.132 131.645C348.522 130.206 349.47 128.371 349.856 126.372C350.242 124.373 350.048 122.3 349.299 120.415C348.551 118.53 347.28 116.919 345.65 115.785C344.019 114.651 342.101 114.046 340.14 114.046C337.519 114.046 335.005 115.125 333.147 117.047C331.29 118.969 330.241 121.577 330.229 124.301Z" fill="#407BFF"/>
<path opacity="0.6" d="M330.229 124.301C330.221 126.34 330.795 128.336 331.879 130.036C332.962 131.735 334.507 133.063 336.317 133.849C338.127 134.636 340.121 134.846 342.046 134.454C343.971 134.061 345.741 133.084 347.132 131.645C348.522 130.206 349.47 128.371 349.856 126.372C350.242 124.373 350.048 122.3 349.299 120.415C348.551 118.53 347.28 116.919 345.65 115.785C344.019 114.651 342.101 114.046 340.14 114.046C337.519 114.046 335.005 115.125 333.147 117.047C331.29 118.969 330.241 121.577 330.229 124.301Z" fill="white"/>
<path d="M339.12 118.536C339.118 118.801 339.193 119.061 339.333 119.283C339.474 119.504 339.675 119.677 339.911 119.779C340.146 119.882 340.406 119.909 340.656 119.858C340.907 119.806 341.137 119.679 341.318 119.491C341.498 119.303 341.621 119.064 341.67 118.804C341.72 118.543 341.694 118.274 341.595 118.029C341.497 117.784 341.33 117.575 341.117 117.429C340.904 117.282 340.654 117.205 340.399 117.207C340.06 117.209 339.736 117.35 339.497 117.599C339.258 117.848 339.122 118.184 339.12 118.536Z" fill="#407BFF"/>
<path d="M340.926 120.655L341.565 121.553C341.954 122.214 342.527 122.736 343.207 123.053L344.701 123.753L344.46 124.319L342.576 123.843C341.987 123.681 341.444 123.373 340.995 122.945L340.649 126.214L340.07 127.3C339.436 128.496 338.619 129.575 337.651 130.497L337.124 131L337.288 132.248L335.923 130.65L336.226 130.354C337.479 129.145 338.467 127.668 339.12 126.025L339.915 120.17L340.926 120.655Z" fill="#407BFF"/>
<path d="M341.055 126.582L340.312 127.884L343.846 131.674L344.701 130.075L343.725 130.426L341.055 126.582Z" fill="#407BFF"/>
<path d="M339.552 120.476L339.146 122.433C338.132 122.703 337.191 123.213 336.398 123.924L335.949 124.328L335.612 123.942L337.003 122.415C337.386 121.992 337.818 121.621 338.291 121.311L339.552 120.476Z" fill="#407BFF"/>
<g opacity="0.6">
<path d="M340.14 95.5652C340.846 95.5652 341.418 94.9701 341.418 94.2361C341.418 93.5021 340.846 92.9071 340.14 92.9071C339.433 92.9071 338.861 93.5021 338.861 94.2361C338.861 94.9701 339.433 95.5652 340.14 95.5652Z" fill="white"/>
<path d="M338.947 97.6306C338.206 98.2861 337.628 99.1179 337.262 100.055L337.046 100.603H336.597L336.865 99.2829C337.019 98.5678 337.288 97.8847 337.66 97.2624L338.152 96.4452C338.278 96.2378 338.453 96.0671 338.66 95.9493C338.867 95.8315 339.1 95.7703 339.336 95.7717H340.943C341.179 95.7703 341.412 95.8315 341.619 95.9493C341.826 96.0671 342.001 96.2378 342.127 96.4452L342.619 97.2624C342.999 97.8809 343.268 98.5653 343.414 99.2829L343.691 100.603H343.233L343.017 100.055C342.651 99.1179 342.073 98.2861 341.332 97.6306V99.9294L342.541 108.2L343.405 108.649H341.747L340.096 102.471L338.489 108.658H336.839L337.703 108.209L338.921 99.9384V97.6395L338.947 97.6306Z" fill="white"/>
</g>
<path d="M228.398 394.635L211.619 397.652H16.0012L18.7919 397.105H18.8006L32.7974 394.635H228.398Z" fill="#407BFF"/>
<path d="M261.896 388.592L245.143 391.609H49.6541L66.5107 388.592H261.896Z" fill="#407BFF"/>
<path d="M295.41 382.548L278.657 385.574H83.3673L100.224 382.548H295.41Z" fill="#407BFF"/>
<path opacity="0.6" d="M228.398 394.635L211.619 397.652H16.0012L18.7919 397.105H18.8006L32.7974 394.635H228.398Z" fill="white"/>
<path opacity="0.6" d="M261.896 388.592L245.143 391.609H49.6541L66.5107 388.592H261.896Z" fill="white"/>
<path opacity="0.6" d="M295.41 382.548L278.657 385.574H83.3673L100.224 382.548H295.41Z" fill="white"/>
<path d="M228.096 377.833L220.881 378.633L219.525 362.46L226.739 361.669L228.096 377.833Z" fill="#B97964"/>
<path opacity="0.2" d="M226.739 361.669L219.525 362.46L220.225 370.802L227.448 370.003L226.739 361.669Z" fill="black"/>
<path d="M266.138 347.346L260.893 352.151L249.756 339.911L255.01 335.107L266.138 347.346Z" fill="#B97964"/>
<path opacity="0.2" d="M255.01 335.116L249.765 339.92L255.511 346.224L260.764 341.42L255.01 335.116Z" fill="black"/>
<path d="M233.764 290.871C237.6 304.198 260.142 334.721 260.142 334.721L250.214 345.039C244.477 337.855 228.511 316.428 228.511 316.428C225.642 339.004 230.178 366.788 230.178 366.788L216.095 367.776C208.466 349.008 211.421 314.56 213.097 300.3C213.572 296.268 213.961 293.844 213.961 293.844C210.781 286.66 210.505 273.827 211.326 260.689C212.411 246.084 214.33 231.559 217.071 217.19L253.359 217.693C253.117 226.871 252.884 242.496 247.631 255.643C242.378 268.789 233.764 290.871 233.764 290.871Z" fill="#407BFF"/>
<path opacity="0.6" d="M233.764 290.871C237.6 304.198 260.142 334.721 260.142 334.721L250.214 345.039C244.477 337.855 228.511 316.428 228.511 316.428C225.642 339.004 230.178 366.788 230.178 366.788L216.095 367.776C208.466 349.008 211.421 314.56 213.097 300.3C213.572 296.268 213.961 293.844 213.961 293.844C210.781 286.66 210.505 273.827 211.326 260.689C212.411 246.084 214.33 231.559 217.071 217.19L253.359 217.693C253.117 226.871 252.884 242.496 247.631 255.643C242.378 268.789 233.764 290.871 233.764 290.871Z" fill="white"/>
<path d="M220.113 376.262H228.606C228.745 376.263 228.88 376.313 228.989 376.405C229.097 376.496 229.172 376.623 229.202 376.765L230.584 383.23C230.638 383.509 230.585 383.798 230.437 384.036C230.288 384.275 230.056 384.443 229.789 384.506C229.712 384.515 229.634 384.515 229.556 384.506C226.809 384.506 224.813 384.29 221.357 384.29C219.231 384.29 212.82 384.515 209.891 384.515C206.962 384.515 206.574 381.506 207.775 381.228C213.157 380.007 217.218 378.318 218.938 376.738C219.258 376.431 219.677 376.261 220.113 376.262Z" fill="#263238"/>
<path d="M217.806 377.492C217.329 377.534 216.853 377.404 216.458 377.124C216.334 377.015 216.238 376.876 216.178 376.72C216.117 376.563 216.095 376.394 216.112 376.226C216.109 376.126 216.134 376.028 216.185 375.943C216.236 375.858 216.31 375.791 216.397 375.75C217.175 375.328 219.43 376.774 219.681 376.935C219.709 376.952 219.732 376.977 219.746 377.008C219.76 377.038 219.764 377.073 219.758 377.106C219.754 377.14 219.741 377.172 219.719 377.197C219.697 377.223 219.669 377.241 219.637 377.25C219.037 377.401 218.423 377.483 217.806 377.492ZM216.76 375.984C216.685 375.984 216.611 376.003 216.544 376.037C216.544 376.037 216.449 376.1 216.441 376.235C216.426 376.35 216.439 376.466 216.478 376.574C216.517 376.682 216.581 376.779 216.665 376.855C217.448 377.226 218.338 377.274 219.154 376.989C218.427 376.495 217.614 376.153 216.76 375.984Z" fill="#407BFF"/>
<path d="M219.585 377.232H219.508C218.791 376.828 217.391 375.229 217.538 374.466C217.562 374.338 217.627 374.223 217.723 374.14C217.819 374.056 217.94 374.01 218.065 374.008C218.192 373.988 218.321 373.999 218.443 374.037C218.566 374.076 218.679 374.143 218.773 374.232C219.577 374.915 219.75 377.007 219.758 377.106C219.759 377.138 219.753 377.169 219.739 377.197C219.726 377.225 219.705 377.25 219.681 377.268C219.646 377.268 219.612 377.255 219.585 377.232ZM218.186 374.286H218.108C217.892 374.286 217.875 374.412 217.866 374.466C217.78 374.933 218.661 376.145 219.387 376.711C219.326 375.878 219.025 375.083 218.523 374.43C218.428 374.346 218.31 374.295 218.186 374.286Z" fill="#407BFF"/>
<path d="M259.632 352.187L266.008 346.35C266.115 346.258 266.25 346.207 266.388 346.207C266.527 346.207 266.662 346.258 266.769 346.35L271.953 350.256C272.171 350.426 272.317 350.679 272.357 350.96C272.398 351.24 272.33 351.526 272.169 351.756L272.013 351.926C269.922 353.785 268.307 355.024 265.715 357.395C264.125 358.859 259.459 363.439 257.256 365.477C255.053 367.515 252.85 365.477 253.575 364.462C256.841 359.847 258.811 355.788 259.079 353.399C259.106 352.936 259.304 352.501 259.632 352.187Z" fill="#263238"/>
<path d="M258.707 354.71C258.379 355.066 257.943 355.294 257.472 355.357C257.302 355.363 257.134 355.325 256.983 355.245C256.831 355.164 256.702 355.045 256.608 354.899C256.545 354.824 256.503 354.732 256.488 354.633C256.472 354.535 256.484 354.434 256.522 354.342C256.833 353.498 259.451 353.031 259.736 352.986C259.767 352.977 259.8 352.979 259.831 352.99C259.862 353.001 259.889 353.022 259.908 353.049C259.925 353.079 259.934 353.113 259.934 353.147C259.934 353.182 259.925 353.216 259.908 353.246C259.563 353.78 259.16 354.271 258.707 354.71ZM256.979 354.297C256.92 354.342 256.875 354.405 256.85 354.477C256.85 354.477 256.85 354.593 256.902 354.701C256.962 354.799 257.045 354.879 257.143 354.934C257.242 354.989 257.352 355.017 257.463 355.015C258.287 354.756 258.983 354.177 259.407 353.399C258.546 353.54 257.719 353.85 256.971 354.315L256.979 354.297Z" fill="#407BFF"/>
<path d="M259.883 353.309L259.822 353.363C259.027 353.552 256.962 353.309 256.582 352.636C256.518 352.524 256.494 352.392 256.514 352.264C256.535 352.136 256.599 352.019 256.694 351.935C256.776 351.834 256.877 351.752 256.992 351.696C257.107 351.641 257.233 351.612 257.36 351.612C258.405 351.612 259.857 353.022 259.952 353.094C259.965 353.12 259.971 353.149 259.971 353.179C259.971 353.209 259.965 353.238 259.952 353.264C259.933 353.286 259.909 353.302 259.883 353.309ZM256.954 352.061L256.902 352.115C256.738 352.258 256.807 352.366 256.833 352.411C257.066 352.824 258.5 353.121 259.425 353.049C258.864 352.46 258.143 352.065 257.36 351.917C257.211 351.907 257.065 351.959 256.954 352.061Z" fill="#407BFF"/>
<path opacity="0.2" d="M238.127 301.899C234.113 307.209 231.595 313.572 230.852 320.281C229.418 317.973 228.511 316.428 228.511 316.428C228.511 316.428 229.029 303.003 233.764 290.871C234.936 294.661 236.395 298.348 238.127 301.899Z" fill="black"/>
<path opacity="0.2" d="M213.149 299.878C213.598 296.098 213.944 293.844 213.944 293.844C213.676 296.618 213.408 297.813 213.149 299.878Z" fill="black"/>
<path opacity="0.2" d="M232.416 229.888C231.949 230.831 217.071 261.12 213.952 293.826C212.285 290.054 211.412 284.738 211.075 278.649C214.998 264.506 221.184 242.711 232.416 229.888Z" fill="black"/>
<path d="M251.519 347.436L263.053 337.325L260.142 333.742L247.994 343.997L251.519 347.436Z" fill="#407BFF"/>
<path opacity="0.6" d="M251.519 347.436L263.053 337.325L260.142 333.742L247.994 343.997L251.519 347.436Z" fill="#407BFF"/>
<g opacity="0.4">
<path d="M263.045 337.325L262.034 338.214L258.008 341.752L251.528 347.436L247.994 343.997L249.359 342.856L259.33 334.433L260.142 333.742L263.045 337.325Z" fill="white"/>
<path opacity="0.6" d="M263.045 337.325L262.034 338.214L258.008 341.752L251.528 347.436L247.994 343.997L249.359 342.856L259.33 334.433L260.142 333.742L263.045 337.325Z" fill="white"/>
</g>
<path d="M215.447 369.877L230.99 367.471L230.515 362.999L214.341 365.208L215.447 369.877Z" fill="#407BFF"/>
<path opacity="0.6" d="M215.447 369.877L230.99 367.471L230.515 362.999L214.341 365.208L215.447 369.877Z" fill="#407BFF"/>
<g opacity="0.4">
<path d="M215.447 369.877L230.99 367.471L230.515 362.999L214.341 365.208L215.447 369.877Z" fill="white"/>
<path opacity="0.6" d="M215.447 369.877L230.99 367.471L230.515 362.999L214.341 365.208L215.447 369.877Z" fill="white"/>
</g>
<path d="M305.856 94.29H302.4V132.904H305.856V94.29Z" fill="#407BFF"/>
<path d="M275.495 161.802L287.79 167.405C288.472 167.19 295.082 136.729 295.082 136.729L301.026 137.187C301.026 137.187 297.337 170.827 293.026 175.254C289.483 178.891 272.868 169.354 272.868 169.354L275.495 161.802Z" fill="#EBB376"/>
<path d="M247.242 166.13C247.699 166.083 248.159 166.083 248.616 166.13C251.948 166.521 255.255 167.121 258.517 167.926C263.67 169.165 268.707 170.878 273.568 173.045L277.698 160.742C277.698 160.742 254.733 147.479 249.912 147.55C249.912 147.55 243.423 166.732 247.242 166.13Z" fill="#407BFF"/>
<path opacity="0.2" d="M248.616 166.13C251.948 166.521 255.255 167.121 258.517 167.926C257.178 161.909 250.05 156.988 250.05 156.988L248.616 166.13Z" fill="black"/>
<path d="M296.741 132.239C296.741 132.239 297.968 129.141 299.333 128.647C300.698 128.154 309.338 127.57 310.124 128.549C310.91 129.528 310.522 136.72 308.854 137.529C307.186 138.337 299.618 137.645 298.918 137.277L296.741 132.239Z" fill="#B97964"/>
<path d="M209.9 150.909C209.9 150.909 210.997 156.638 212.337 164.963C212.941 168.725 213.589 173.045 214.22 177.535C214.22 177.535 214.22 177.58 214.22 177.597C214.989 183.174 215.715 189.11 216.259 194.884C216.848 200.851 217.136 206.846 217.123 212.844H253.472C253.472 212.844 253.999 203.46 253.921 191.121C253.921 185.473 253.731 179.214 253.342 172.946C252.78 163.876 251.735 154.797 249.886 147.568C249.912 147.55 228.528 142.558 209.9 150.909Z" fill="#407BFF"/>
<path d="M222.048 147.496C225.357 150.622 233.461 149.463 233.461 149.463C233.461 149.463 238.524 148.026 237.462 146.383C234.472 145.871 233.038 144.425 232.442 142.575C232.115 141.429 232.013 140.226 232.139 139.037C232.189 138.375 232.273 137.715 232.39 137.062L222.394 129.312C223.698 134.44 225.314 143.806 222.048 147.496Z" fill="#EBB376"/>
<path opacity="0.2" d="M224.709 134.251C225.107 140.537 230.049 142.225 232.485 142.575C232.159 141.429 232.056 140.226 232.183 139.037L224.709 134.251Z" fill="black"/>
<path d="M239.259 112.879C239.259 112.879 242.119 122.263 237.773 126.762C233.427 131.261 230.688 113.373 230.688 113.373L239.259 112.879Z" fill="#263238"/>
<path d="M223.361 135.005C223.745 135.625 224.188 136.203 224.683 136.729C225.951 138.142 227.63 139.084 229.463 139.408C231.296 139.732 233.18 139.422 234.827 138.525C236.979 137.407 238.643 135.482 239.483 133.137C239.596 132.814 239.699 132.482 239.786 132.141C239.987 131.313 240.137 130.473 240.235 129.626C241.021 123.403 239.708 115.115 233.963 112.564C232.515 111.928 230.935 111.687 229.372 111.865C227.809 112.043 226.317 112.633 225.036 113.58C223.755 114.527 222.728 115.799 222.054 117.275C221.38 118.75 221.08 120.381 221.184 122.011C221.409 127.92 221.348 131.773 223.361 135.005Z" fill="#EBB376"/>
<path d="M231.336 124.104C231.293 124.66 231.612 125.136 231.975 125.136C232.338 125.136 232.623 124.678 232.632 124.113C232.641 123.547 232.355 123.08 232.001 123.071C231.647 123.062 231.345 123.52 231.336 124.104Z" fill="#263238"/>
<path d="M237.531 124.184C237.479 124.75 237.807 125.217 238.162 125.217C238.516 125.217 238.818 124.759 238.827 124.193C238.835 123.628 238.542 123.161 238.187 123.161C237.833 123.161 237.539 123.646 237.531 124.184Z" fill="#263238"/>
<path d="M235.561 124.436C236.19 126.187 237.048 127.839 238.11 129.348C237.735 129.615 237.31 129.794 236.863 129.875C236.415 129.955 235.957 129.935 235.518 129.815L235.561 124.436Z" fill="#D58745"/>
<path d="M229.444 121.993C229.502 122 229.56 121.992 229.614 121.97C229.668 121.948 229.716 121.913 229.755 121.868C229.994 121.53 230.307 121.255 230.667 121.064C231.027 120.874 231.425 120.774 231.828 120.772C231.913 120.779 231.997 120.751 232.062 120.694C232.127 120.637 232.167 120.555 232.174 120.467C232.181 120.379 232.154 120.291 232.099 120.224C232.044 120.157 231.965 120.115 231.88 120.108C231.376 120.102 230.878 120.221 230.428 120.455C229.977 120.69 229.586 121.032 229.288 121.455C229.235 121.522 229.209 121.61 229.217 121.697C229.225 121.785 229.266 121.865 229.331 121.921C229.365 121.951 229.403 121.975 229.444 121.993Z" fill="#263238"/>
<path d="M240.192 122.002C240.254 122.02 240.32 122.02 240.382 122.002C240.459 121.965 240.518 121.898 240.547 121.816C240.576 121.733 240.573 121.642 240.538 121.562C240.33 121.077 240.013 120.651 239.615 120.318C239.217 119.985 238.748 119.756 238.248 119.65C238.206 119.643 238.163 119.646 238.122 119.657C238.081 119.668 238.042 119.687 238.008 119.714C237.975 119.741 237.946 119.774 237.925 119.813C237.904 119.851 237.89 119.893 237.885 119.937C237.877 120.023 237.9 120.109 237.949 120.179C237.999 120.249 238.071 120.297 238.153 120.314C238.548 120.408 238.916 120.596 239.228 120.864C239.54 121.133 239.787 121.473 239.95 121.859C240.01 121.937 240.096 121.989 240.192 122.002Z" fill="#263238"/>
<path d="M226.195 113.355L226.662 116.417C226.169 116.685 225.791 117.135 225.602 117.679C225.413 118.222 225.427 118.82 225.642 119.353C226.688 121.903 225.409 125.98 223.551 127.651C223.551 127.651 223.456 126.528 222.549 126.825C221.642 127.121 222.091 132.958 223.966 135.688C223.966 135.688 221.193 133.263 219.473 127.175C217.875 121.553 217.547 116.83 218.609 114.603L226.195 113.355Z" fill="#263238"/>
<path d="M218.73 115.483C218.73 115.483 215.732 110.67 223.802 108.137C231.872 105.605 237.488 109.206 237.488 109.206C237.488 109.206 242.732 115.725 235.76 116.794C228.908 117.827 218.73 115.483 218.73 115.483Z" fill="#263238"/>
<path d="M235.345 131.925C234.974 132.935 234.671 133.97 234.438 135.023H233.893C231.414 134.835 230.316 133.892 229.867 132.913C229.652 132.427 229.554 131.894 229.582 131.359C229.584 131.055 229.628 130.753 229.712 130.461C230.973 131.359 233.271 131.737 234.507 131.88C235.008 131.916 235.345 131.925 235.345 131.925Z" fill="#263238"/>
<path d="M234.896 132.006L234.611 132.904C232.485 132.796 230.455 132.195 229.772 131.404C229.773 131.089 229.853 130.779 230.005 130.506C231.514 131.363 233.181 131.875 234.896 132.006Z" fill="white"/>
<path d="M233.893 134.987C231.414 134.799 230.316 133.856 229.867 132.877C230.808 132.969 231.726 133.23 232.58 133.649C233.142 133.941 233.601 134.409 233.893 134.987Z" fill="#DE5753"/>
<path d="M218.808 126.51C218.439 126.876 217.965 127.106 217.458 127.166C216.951 127.226 216.439 127.113 216 126.843C214.6 125.837 215.352 123.7 215.352 123.7C214.827 123.945 214.235 123.99 213.682 123.826C213.128 123.661 212.649 123.298 212.328 122.802C211.032 121.006 212.76 118.985 212.76 118.985C212.054 118.684 211.451 118.172 211.028 117.513C210.605 116.853 210.38 116.078 210.384 115.285C210.381 114.936 210.447 114.589 210.578 114.267C210.708 113.945 210.901 113.654 211.144 113.411C211.386 113.169 211.674 112.981 211.989 112.859C212.304 112.736 212.64 112.682 212.976 112.699C212.603 112.562 212.265 112.34 211.984 112.051C211.704 111.761 211.489 111.41 211.355 111.023C211.221 110.636 211.171 110.224 211.21 109.815C211.248 109.406 211.373 109.011 211.576 108.658C212.976 105.74 215.568 107.536 215.568 107.536C215.568 107.536 213.736 103.495 216.544 102.264C216.882 102.073 217.254 101.956 217.637 101.92C218.02 101.885 218.406 101.932 218.77 102.058C219.135 102.184 219.471 102.388 219.757 102.655C220.043 102.922 220.273 103.248 220.432 103.611C220.432 103.611 220.104 99.5702 223.776 99.1212C227.448 98.6722 227.88 101.474 227.88 101.474C227.88 101.474 229.72 97.882 232.416 98.78C232.762 98.858 233.089 99.0089 233.377 99.2233C233.664 99.4377 233.907 99.7111 234.089 100.027C234.271 100.342 234.389 100.693 234.436 101.058C234.482 101.423 234.457 101.793 234.36 102.148C235.064 101.804 235.849 101.685 236.618 101.805C237.387 101.925 238.104 102.278 238.68 102.821C240.736 104.734 239.008 106.413 239.008 106.413C239.008 106.413 241.488 106.189 241.92 109.224C242.352 112.259 240.624 112.25 240.624 112.25C241.203 112.515 241.69 112.959 242.02 113.521C242.349 114.083 242.504 114.736 242.464 115.393C242.352 117.755 240.84 117.414 240.84 117.414C241.296 117.77 241.641 118.258 241.833 118.817C242.025 119.375 242.055 119.98 241.92 120.557C241.384 122.469 240.088 122.245 240.088 122.245C240.088 122.245 238.792 117.189 237.28 115.618C235.768 114.046 224.64 115.618 224.64 115.618L223.24 123.924L218.808 126.51Z" fill="#263238"/>
<path d="M217.529 127.803C218.256 129.395 219.561 130.623 221.158 131.216C223.275 131.979 224.484 130.048 224.018 127.884C223.586 125.971 221.979 123.206 219.793 123.394C217.607 123.583 216.665 125.837 217.529 127.803Z" fill="#EBB376"/>
<path d="M216.458 212.826H254.016V217.505L216.086 217.002L216.458 212.826Z" fill="#263238"/>
<path d="M243.095 210.922H241.764V219.121H243.095V210.922Z" fill="#407BFF"/>
<path d="M222.903 210.805H221.573V219.004H222.903V210.805Z" fill="#407BFF"/>
<path d="M236.079 212.081H229.167V217.253H236.079V212.081Z" fill="white"/>
<path opacity="0.6" d="M243.095 210.922H241.764V219.121H243.095V210.922Z" fill="white"/>
<path opacity="0.6" d="M222.903 210.805H221.573V219.004H222.903V210.805Z" fill="white"/>
<path d="M206.41 190.241C206.41 190.241 205.088 200.308 197.467 206.262C189.847 212.215 167.901 204.564 167.901 204.564L164.445 197.776C164.445 197.776 189.302 201.682 192.024 199.796C194.746 197.91 197.208 189.568 197.208 189.568L206.41 190.241Z" fill="#EBB376"/>
<path d="M214.851 176.008C214.851 176.008 211.965 181.396 205.701 197.353L194.4 192.441C194.4 192.441 207.576 153.54 209.9 150.909C209.9 150.909 213.952 152.552 214.851 176.008Z" fill="#407BFF"/>
<path d="M294.045 136.837C294.045 136.837 293.069 138.759 295.039 139.307C297.009 139.855 299.592 140.411 299.592 140.411C299.592 140.411 301.761 140.923 301.968 139.307L302.175 137.699C302.175 137.699 308.828 138.481 309.433 136.801C310.038 135.122 311.541 129.617 310.098 128.468C308.655 127.318 304.56 126.825 302.832 126.816C302.701 126.468 302.503 126.152 302.249 125.889C301.994 125.625 301.69 125.419 301.356 125.284C301.021 125.149 300.663 125.088 300.304 125.104C299.946 125.12 299.594 125.214 299.272 125.379C296.767 126.618 294.045 136.837 294.045 136.837Z" fill="#407BFF"/>
<path opacity="0.6" d="M294.045 136.837C294.045 136.837 293.069 138.759 295.039 139.307C297.009 139.855 299.592 140.411 299.592 140.411C299.592 140.411 301.761 140.923 301.968 139.307L302.175 137.699C302.175 137.699 308.828 138.481 309.433 136.801C310.038 135.122 311.541 129.617 310.098 128.468C308.655 127.318 304.56 126.825 302.832 126.816C302.701 126.468 302.503 126.152 302.249 125.889C301.994 125.625 301.69 125.419 301.356 125.284C301.021 125.149 300.663 125.088 300.304 125.104C299.946 125.12 299.594 125.214 299.272 125.379C296.767 126.618 294.045 136.837 294.045 136.837Z" fill="white"/>
<path d="M233.34 220.908H214.272C215.342 206.404 215.313 191.836 214.186 177.337C214.186 177.337 220.7 176.161 217.987 164.936C215.274 153.711 213.892 148.628 213.892 148.628L220.605 146.59C220.605 146.59 219.879 154.196 230.688 154.043C230.688 154.043 234.688 201.152 233.34 220.908Z" fill="#407BFF"/>
<path opacity="0.2" d="M233.34 220.908H214.272C215.342 206.404 215.313 191.836 214.186 177.337C214.186 177.337 220.7 176.161 217.987 164.936C215.274 153.711 213.892 148.628 213.892 148.628L220.605 146.59C220.605 146.59 219.879 154.196 230.688 154.043C230.688 154.043 234.688 201.152 233.34 220.908Z" fill="black"/>
<path d="M231.846 154.124C231.846 154.124 240.149 152.777 238.81 145.476C238.81 145.476 242.559 145.871 246.024 146.069C246.024 146.069 249.826 161.173 250.188 167.863C250.188 167.863 250.629 172.102 253.938 171.868C253.938 171.868 255.269 200.146 254.802 220.908H234.576C234.576 220.908 235.345 193.07 231.846 154.124Z" fill="#407BFF"/>
<path opacity="0.2" d="M231.846 154.124C231.846 154.124 240.149 152.777 238.81 145.476C238.81 145.476 242.559 145.871 246.024 146.069C246.024 146.069 249.826 161.173 250.188 167.863C250.188 167.863 250.629 172.102 253.938 171.868C253.938 171.868 255.269 200.146 254.802 220.908H234.576C234.576 220.908 235.345 193.07 231.846 154.124Z" fill="black"/>
<path d="M236.105 160.428C236.105 160.428 231.5 161.245 228.848 161.326C226.195 161.407 227.059 163.023 227.12 164.271C227.18 165.519 227.474 166.965 229.349 166.768C231.224 166.57 234.982 166.363 236.105 166.085C237.228 165.807 238.611 165.582 238.075 163.562C237.539 161.541 237.747 160.149 236.105 160.428Z" fill="#407BFF"/>
<path d="M238.196 196.842C238.196 196.842 233.522 197.039 230.887 196.842C228.251 196.644 228.899 198.287 228.839 199.536C228.778 200.784 228.839 202.23 230.748 202.31C232.658 202.391 236.382 202.652 237.522 202.535C238.663 202.418 240.114 202.364 239.794 200.29C239.475 198.216 239.855 196.788 238.196 196.842Z" fill="#407BFF"/>
<path opacity="0.6" d="M238.196 196.842C238.196 196.842 233.522 197.039 230.887 196.842C228.251 196.644 228.899 198.287 228.839 199.536C228.778 200.784 228.839 202.23 230.748 202.31C232.658 202.391 236.382 202.652 237.522 202.535C238.663 202.418 240.114 202.364 239.794 200.29C239.475 198.216 239.855 196.788 238.196 196.842Z" fill="white"/>
<path d="M237.349 179.456C237.349 179.456 232.692 179.923 230.049 179.824C227.405 179.726 228.139 181.378 228.139 182.626C228.139 183.874 228.303 185.32 230.196 185.32C232.088 185.32 235.837 185.32 236.978 185.168C238.118 185.015 239.518 184.853 239.121 182.797C238.723 180.74 239.008 179.313 237.349 179.456Z" fill="#407BFF"/>
<path opacity="0.6" d="M237.349 179.456C237.349 179.456 232.692 179.923 230.049 179.824C227.405 179.726 228.139 181.378 228.139 182.626C228.139 183.874 228.303 185.32 230.196 185.32C232.088 185.32 235.837 185.32 236.978 185.168C238.118 185.015 239.518 184.853 239.121 182.797C238.723 180.74 239.008 179.313 237.349 179.456Z" fill="white"/>
<path opacity="0.6" d="M236.105 160.428C236.105 160.428 231.5 161.245 228.848 161.326C226.195 161.407 227.059 163.023 227.12 164.271C227.18 165.519 227.474 166.965 229.349 166.768C231.224 166.57 234.982 166.363 236.105 166.085C237.228 165.807 238.611 165.582 238.075 163.562C237.539 161.541 237.747 160.149 236.105 160.428Z" fill="white"/>
<path opacity="0.2" d="M305.856 94.29V102.623L302.4 103.899V94.29H305.182H305.856Z" fill="black"/>
<path d="M286.848 76.9676C286.906 80.5722 287.987 84.0787 289.956 87.0466C291.926 90.0145 294.695 92.3115 297.916 93.649C301.137 94.9865 304.666 95.305 308.061 94.5643C311.456 93.8237 314.564 92.057 316.996 89.4861C319.427 86.9153 321.074 83.6549 321.729 80.1146C322.383 76.5742 322.017 72.9118 320.675 69.5872C319.334 66.2626 317.077 63.4242 314.188 61.4285C311.299 59.4328 307.908 58.3687 304.439 58.37C299.734 58.4127 295.238 60.3958 291.939 63.8833C288.64 67.3708 286.809 72.0772 286.848 76.9676Z" fill="#407BFF"/>
<path opacity="0.6" d="M286.848 76.9676C286.906 80.5722 287.987 84.0787 289.956 87.0466C291.926 90.0145 294.695 92.3115 297.916 93.649C301.137 94.9865 304.666 95.305 308.061 94.5643C311.456 93.8237 314.564 92.057 316.996 89.4861C319.427 86.9153 321.074 83.6549 321.729 80.1146C322.383 76.5742 322.017 72.9118 320.675 69.5872C319.334 66.2626 317.077 63.4242 314.188 61.4285C311.299 59.4328 307.908 58.3687 304.439 58.37C299.734 58.4127 295.238 60.3958 291.939 63.8833C288.64 67.3708 286.809 72.0772 286.848 76.9676Z" fill="white"/>
<path d="M317.088 73.636H292.032V80.82H317.088V73.636Z" fill="white"/>
<path d="M130.015 377.187L123.008 377.95L121.694 362.244L128.701 361.472L130.015 377.187Z" fill="#B97964"/>
<path d="M164.989 376.657H158.198L157.637 360.305H164.437L164.989 376.657Z" fill="#B97964"/>
<path d="M157.248 375.84H165.499C165.635 375.839 165.766 375.887 165.872 375.975C165.977 376.063 166.05 376.187 166.078 376.325L167.417 382.611C167.445 382.763 167.44 382.92 167.404 383.071C167.367 383.221 167.298 383.361 167.204 383.481C167.109 383.601 166.99 383.698 166.855 383.765C166.72 383.832 166.573 383.867 166.424 383.868C163.754 383.823 161.81 383.653 158.458 383.653C156.393 383.653 150.163 383.877 147.312 383.877C144.461 383.877 144.089 380.95 145.256 380.68C150.492 379.495 154.431 377.851 156.108 376.289C156.418 375.992 156.826 375.831 157.248 375.84Z" fill="#263238"/>
<path d="M122.265 375.615H130.516C130.651 375.614 130.783 375.662 130.889 375.751C130.994 375.839 131.067 375.963 131.095 376.1L132.434 382.386C132.462 382.539 132.457 382.696 132.42 382.846C132.383 382.997 132.315 383.137 132.22 383.257C132.125 383.376 132.006 383.473 131.872 383.54C131.737 383.607 131.59 383.642 131.44 383.644C128.771 383.599 126.827 383.428 123.474 383.428C121.409 383.428 115.18 383.653 112.329 383.653C109.477 383.653 109.106 380.725 110.272 380.456C115.508 379.27 119.448 377.627 121.124 376.064C121.434 375.767 121.843 375.606 122.265 375.615Z" fill="#263238"/>
<path opacity="0.2" d="M128.701 361.472L121.694 362.244L122.377 370.344L129.384 369.581L128.701 361.472Z" fill="black"/>
<path opacity="0.2" d="M164.437 360.314H157.637L157.931 368.746H164.73L164.437 360.314Z" fill="black"/>
<path d="M167.236 367.282H154.812C154.812 367.282 148.098 324.753 144.962 305.32C143.683 297.418 142.214 282.565 140.97 268.601L140.893 268.789C138.301 275.165 136.391 284.154 135.009 294.095C130.689 325.04 131.337 365.235 131.337 365.235L119.137 366.68C111.456 313.519 122.152 254.134 125.582 237.072H161.629C161.68 241.562 162.233 286.776 163.521 307.529C164.696 326.665 167.236 367.282 167.236 367.282Z" fill="#263238"/>
<path opacity="0.2" d="M140.97 268.574L140.893 268.762C138.301 275.138 136.391 284.127 135.009 294.068C134.706 295.55 134.447 296.762 134.274 297.66C132.84 271.169 139.856 251.862 139.856 251.862L140.97 268.574Z" fill="black"/>
<path d="M117.729 369.455L132.831 367.12L132.374 362.774L116.657 364.911L117.729 369.455Z" fill="#407BFF"/>
<path d="M117.729 369.455L132.831 367.12L132.374 362.774L116.657 364.911L117.729 369.455Z" fill="#407BFF"/>
<path d="M153.317 367.39H167.97V362.837L152.764 362.541L153.317 367.39Z" fill="#407BFF"/>
<path d="M153.317 367.39H167.97V362.837L152.764 362.541L153.317 367.39Z" fill="#407BFF"/>
<path d="M125.28 236.174H161.568V241.185L124.822 240.224L125.28 236.174Z" fill="#263238"/>
<path d="M149.904 235.545H148.608V242.451H149.904V235.545Z" fill="#407BFF"/>
<path d="M131.544 235.545H130.248V242.451H131.544V235.545Z" fill="#407BFF"/>
<path d="M141.817 236.614H135.104V240.969H141.817V236.614Z" fill="white"/>
<path d="M92.6727 254.278V254.332L90.0202 266.517L70.9777 353.812L63.2708 389.202C63.1671 389.481 63.0116 390.271 61.4305 390.271H61.1972C60.9026 390.272 60.6111 390.208 60.3417 390.085C60.0723 389.961 59.8309 389.779 59.6333 389.552C59.4193 389.203 59.3392 388.784 59.4087 388.376L67.3402 352.788L86.7543 266.302L89.8561 252.428V252.338C89.8561 252.078 90.0893 250.758 91.2989 250.758C91.6119 250.762 91.9229 250.81 92.2234 250.901C92.3477 250.931 92.4641 250.989 92.5642 251.072C92.6643 251.154 92.7456 251.258 92.8023 251.377C93.0562 252.334 93.0108 253.35 92.6727 254.278Z" fill="#263238"/>
<path d="M70.9777 353.812L63.2708 389.202C63.1671 389.481 63.0116 390.271 61.4305 390.271H61.1972C60.9026 390.272 60.6111 390.208 60.3417 390.085C60.0723 389.961 59.8309 389.779 59.6333 389.552C59.4193 389.203 59.3392 388.784 59.4087 388.376L67.3921 352.743C68.4704 353.434 69.7108 353.804 70.9777 353.812Z" fill="#407BFF"/>
<path d="M92.6727 254.278V254.332L89.8561 267.092C88.6811 267.092 87.843 267.415 86.7371 266.257L89.8561 252.428V252.338C89.8561 252.078 90.0894 250.758 91.299 250.758C91.612 250.762 91.923 250.81 92.2235 250.901C92.3478 250.931 92.4642 250.989 92.5643 251.072C92.6644 251.154 92.7457 251.258 92.8023 251.377C93.0562 252.334 93.0108 253.35 92.6727 254.278Z" fill="#407BFF"/>
<path opacity="0.6" d="M92.6727 254.278V254.332L89.8561 267.092C88.6811 267.092 87.843 267.415 86.7371 266.257L89.8561 252.428V252.338C89.8561 252.078 90.0894 250.758 91.299 250.758C91.612 250.762 91.923 250.81 92.2235 250.901C92.3478 250.931 92.4642 250.989 92.5643 251.072C92.6644 251.154 92.7457 251.258 92.8023 251.377C93.0562 252.334 93.0108 253.35 92.6727 254.278Z" fill="white"/>
<path d="M180.161 262.117C178.533 260.566 176.38 259.748 174.173 259.843C171.967 259.937 169.885 260.935 168.385 262.62C166.424 264.488 163.97 267.82 162.285 273.549C159.08 284.442 159.581 307.457 178.701 304.7C192.603 302.707 191.678 270.585 180.161 262.117ZM179.557 265.458C180.706 266.917 181.303 268.763 181.233 270.648C181.328 278.371 170.372 279.628 168.186 274.321C166.605 270.451 167.573 267.793 169.163 266.024C169.327 265.844 169.491 265.682 169.655 265.521C171.651 263.68 177.518 263.033 179.557 265.458Z" fill="#407BFF"/>
<path opacity="0.2" d="M184.136 279.835C184.067 279.655 182.952 271.537 181.259 275.578C179.565 279.619 175.288 279.278 170.744 279.17C166.199 279.062 170.208 291.176 167.236 280.966C164.264 270.756 169.128 266.104 169.128 266.104L169.188 266.041C167.599 267.837 166.596 270.469 168.212 274.339C170.398 279.673 181.354 278.389 181.259 270.666C181.328 268.781 180.732 266.935 179.582 265.476C184.637 270.19 184.585 280.894 184.136 279.835Z" fill="black"/>
<path d="M93.0096 243.107C93.0096 243.107 88.992 245.253 87.9811 247.336C87.6942 247.984 87.5457 248.688 87.5457 249.402C87.5457 250.115 87.6942 250.819 87.9811 251.467C87.7589 251.815 87.6727 252.239 87.7401 252.651C87.8075 253.063 88.0235 253.433 88.344 253.685C89.4931 254.825 87.2122 258.274 88.4304 259.567C89.6486 260.86 88.6291 259.567 88.6291 259.567C88.6291 259.567 89.7178 260.6 91.2989 257.053C92.88 253.505 91.6963 258.705 91.6963 258.705C91.8269 259.097 92.0959 259.422 92.4488 259.616C92.8018 259.809 93.2123 259.856 93.5971 259.747C95.1869 259.522 92.88 257.654 94.2451 255.553C95.6102 253.452 98.6256 253.389 99.8957 249.384L93.0096 243.107Z" fill="#B97964"/>
<path d="M180.161 262.117C180.198 263.267 180.001 264.411 179.582 265.476C178.243 268.682 174.934 269.068 173.197 269.068C171.66 269.068 170.476 267.272 169.741 265.566V265.503C169.342 264.61 169.013 263.685 168.757 262.737C168.65 262.693 168.546 262.642 168.445 262.584C165.568 261.004 169.24 256.702 170.925 254.951C171.374 254.484 171.685 254.197 171.685 254.197L178.839 255.095C178.926 255.355 179.012 255.616 179.09 255.867C179.755 257.881 180.116 259.989 180.161 262.117Z" fill="#B97964"/>
<path d="M132.883 191.319L132.831 191.543C132.831 191.543 129.375 204.358 126.317 213.769C123.44 222.587 122.861 224.24 118.429 229.628C117.565 230.66 116.606 231.828 115.439 233.22C108.216 241.822 100.63 250.066 100.63 250.066L91.6964 241.921C91.6964 241.921 106.981 226.089 109.84 223.189C112.7 220.288 116.701 207.438 116.701 207.438C116.701 207.438 123.025 180.57 126.93 173.314C126.971 173.224 127.017 173.137 127.069 173.054C127.064 173.104 127.064 173.155 127.069 173.206C127.426 173.352 127.809 173.413 128.192 173.386C130.486 173.471 132.765 173.808 134.991 174.392C134.991 174.392 136.357 176.987 132.883 191.319Z" fill="#407BFF"/>
<path d="M132.883 191.319L132.831 191.543C132.831 191.543 129.375 204.358 126.317 213.769C123.44 222.587 122.861 224.24 118.429 229.628C121.099 223.4 122.567 216.687 122.749 209.872C122.895 198.835 124.554 179.654 126.922 173.242C126.963 173.152 127.009 173.066 127.06 172.982C127.434 172.948 127.809 172.948 128.183 172.982C129.548 175.11 131.389 182.68 132.883 191.319Z" fill="#407BFF"/>
<path opacity="0.2" d="M132.883 191.319L132.831 191.543C132.831 191.543 129.375 204.358 126.317 213.769C123.44 222.587 122.861 224.24 118.429 229.628C121.099 223.4 122.567 216.687 122.749 209.872C122.895 198.835 124.554 179.654 126.922 173.242C126.963 173.152 127.009 173.066 127.06 172.982C127.434 172.948 127.809 172.948 128.183 172.982C129.548 175.11 131.389 182.68 132.883 191.319Z" fill="black"/>
<path d="M167.616 173.485L167.348 175.11C167.27 175.604 167.175 176.206 167.072 176.906C166.882 178.127 166.648 179.645 166.389 181.396C166.156 183.003 165.897 184.817 165.62 186.784C165.62 187.053 165.542 187.323 165.508 187.592C165.473 187.862 165.404 188.391 165.344 188.805C165.162 190.169 164.981 191.588 164.791 193.07L164.566 194.866C164.385 196.321 164.203 197.82 164.022 199.356C164.022 199.643 163.961 199.931 163.927 200.254C163.927 200.254 163.927 200.299 163.927 200.317C163.754 201.781 163.59 203.271 163.434 204.807C163.279 206.342 163.106 207.959 162.959 209.548C162.959 209.764 162.916 209.979 162.899 210.195L162.743 211.991C162.613 213.491 162.493 214.99 162.38 216.481C162.38 216.876 162.32 217.262 162.294 217.648C162.216 218.834 162.19 220.27 162.207 221.869C162.225 223.467 162.285 225.371 162.363 227.257C162.363 227.85 162.423 228.451 162.458 229.053C162.536 230.553 162.631 232.07 162.717 233.543C162.838 235.456 162.959 237.288 163.063 238.931C163.175 240.727 163.27 242.262 163.313 243.421H122.584C122.584 243.421 122.809 241.688 123.103 238.931C123.267 237.413 123.448 235.572 123.63 233.543C123.759 232.124 123.88 230.615 123.993 229.053C124.036 228.46 124.07 227.859 124.114 227.257C124.226 225.461 124.321 223.665 124.39 221.869C124.459 220.073 124.494 218.232 124.494 216.481C124.494 215.915 124.494 215.358 124.494 214.811C124.494 213.913 124.494 212.943 124.494 211.991C124.494 211.398 124.494 210.797 124.494 210.195C124.494 208.399 124.494 206.603 124.494 204.807C124.494 203.011 124.546 201.215 124.606 199.419C124.606 198.521 124.658 197.569 124.693 196.644C124.693 196.06 124.736 195.495 124.762 194.929C124.788 194.363 124.813 193.726 124.839 193.133C124.934 190.951 125.047 188.858 125.194 186.847C125.332 184.997 125.496 183.21 125.703 181.459C125.885 179.941 126.101 178.451 126.351 176.969C126.464 176.367 126.567 175.766 126.688 175.173C126.809 174.58 126.991 173.736 127.155 173.018C127.094 172.955 150.388 169.435 167.616 173.485Z" fill="#407BFF"/>
<path opacity="0.2" d="M165.301 188.805C164.843 192.28 164.35 196.15 163.884 200.227C163.884 200.227 163.884 200.272 163.884 200.29C163.538 203.289 163.21 206.378 162.916 209.485L162.76 210.841C157.628 201.565 160.523 184.719 160.523 184.719L165.301 188.805Z" fill="black"/>
<g opacity="0.2">
<path d="M163.011 238.868H123.103C123.267 237.35 123.448 235.509 123.63 233.48H162.665C162.786 235.393 162.907 237.225 163.011 238.868Z" fill="black"/>
<path d="M162.432 228.99H123.993C124.036 228.397 124.07 227.796 124.114 227.194H162.311C162.346 227.787 162.372 228.388 162.432 228.99Z" fill="black"/>
<path d="M162.242 217.585C162.164 218.771 162.138 220.208 162.156 221.806H124.416C124.485 220.01 124.52 218.169 124.52 216.418H162.354C162.294 216.813 162.268 217.199 162.242 217.585Z" fill="black"/>
<path d="M162.847 210.132L162.691 211.928H124.416C124.416 211.335 124.416 210.734 124.416 210.132H162.847Z" fill="black"/>
<path d="M163.979 199.356C163.979 199.643 163.918 199.931 163.884 200.254C163.884 200.254 163.884 200.299 163.884 200.317C163.711 201.781 163.547 203.271 163.391 204.807H124.416C124.416 203.011 124.453 201.215 124.528 199.419L163.979 199.356Z" fill="black"/>
<path d="M164.748 193.07L164.523 194.866H124.701C124.701 194.255 124.753 193.663 124.779 193.07H164.748Z" fill="black"/>
<path d="M166.346 181.396C166.113 183.003 165.853 184.817 165.577 186.784H125.133C125.271 184.934 125.436 183.147 125.643 181.396H166.346Z" fill="black"/>
<path d="M167.305 175.11C167.227 175.604 167.132 176.206 167.028 176.906H126.291C126.403 176.304 126.507 175.703 126.628 175.11H167.305Z" fill="black"/>
</g>
<path d="M182.304 211.138C180.248 203.747 172.886 183.524 169.508 174.724C169.128 173.745 167.607 173.476 167.607 173.476C158.769 175.46 159.598 191.346 159.598 191.346C162.665 193.142 170.545 214.694 170.545 214.694C170.545 214.694 174.796 224.572 174.001 228.649C173.206 232.726 169.456 254.825 169.456 254.825L181.267 256.163C181.267 256.163 182.935 244.894 184.11 233.543C185.285 222.192 185.302 221.806 182.304 211.138Z" fill="#407BFF"/>
<path d="M153.619 171.671C151.2 178.091 144.012 177.777 144.012 177.777C144.012 177.777 137.212 177.966 138.171 171.895C140.996 171.204 142.344 169.758 142.871 167.971C142.895 167.897 142.915 167.822 142.932 167.746C143.189 166.566 143.213 165.344 143.001 164.154C142.914 163.508 142.776 162.852 142.629 162.206L144.357 160.652L145.411 159.754L152.099 153.836C151.616 156.425 151.327 159.049 151.235 161.685C151.235 161.954 151.235 162.215 151.235 162.475C151.2 163.978 151.295 165.48 151.52 166.965C151.703 168.731 152.441 170.385 153.619 171.671Z" fill="#B97964"/>
<path opacity="0.2" d="M152.125 153.836C151.642 156.425 151.353 159.049 151.261 161.685C151.261 161.954 151.261 162.215 151.261 162.475C149.654 166.319 145.662 167.459 142.923 167.971C142.947 167.897 142.967 167.822 142.983 167.746C143.241 166.566 143.265 165.344 143.053 164.154C142.966 163.508 142.828 162.852 142.681 162.206L144.409 160.652L145.463 159.754L152.125 153.836Z" fill="black"/>
<path d="M134.326 138.84C134.326 138.84 132.451 148.484 137.246 152.471C142.042 156.459 142.871 138.364 142.871 138.364L134.326 138.84Z" fill="#E0E0E0"/>
<path d="M152.427 159.054C152.111 159.712 151.732 160.334 151.295 160.913C150.181 162.46 148.608 163.584 146.82 164.113C145.031 164.642 143.125 164.546 141.394 163.84C139.137 162.975 137.283 161.247 136.21 159.009C136.063 158.704 135.925 158.38 135.804 158.057C135.515 157.257 135.279 156.438 135.095 155.605C133.67 149.508 134.11 141.121 139.562 137.978C140.932 137.178 142.476 136.755 144.048 136.751C145.619 136.746 147.165 137.16 148.54 137.952C149.914 138.744 151.071 139.888 151.899 141.276C152.728 142.664 153.201 144.249 153.274 145.88C153.637 151.762 154.094 155.614 152.427 159.054Z" fill="#B97964"/>
<path d="M143.372 149.068C143.476 149.625 143.208 150.128 142.845 150.173C142.482 150.217 142.145 149.786 142.076 149.23C142.007 148.673 142.249 148.17 142.603 148.125C142.958 148.08 143.295 148.529 143.372 149.068Z" fill="#263238"/>
<path d="M137.221 149.885C137.324 150.442 137.048 150.945 136.694 150.981C136.339 151.017 136.002 150.604 135.933 150.083C135.864 149.562 136.106 149.023 136.46 148.987C136.814 148.951 137.16 149.346 137.221 149.885Z" fill="#263238"/>
<path d="M139.208 149.912C138.76 151.721 138.077 153.458 137.177 155.076C137.583 155.305 138.032 155.44 138.493 155.471C138.954 155.502 139.416 155.429 139.847 155.255L139.208 149.912Z" fill="#A24E3F"/>
<path d="M144.357 145.296C144.307 145.325 144.251 145.341 144.193 145.341C144.136 145.341 144.079 145.325 144.029 145.296C143.679 145.086 143.287 144.963 142.883 144.938C142.48 144.913 142.076 144.987 141.705 145.153C141.63 145.192 141.543 145.2 141.463 145.175C141.383 145.15 141.315 145.094 141.273 145.018C141.252 144.98 141.239 144.938 141.234 144.894C141.229 144.851 141.233 144.807 141.245 144.765C141.257 144.723 141.277 144.684 141.304 144.65C141.331 144.616 141.365 144.589 141.402 144.569C141.866 144.348 142.374 144.245 142.884 144.27C143.393 144.295 143.89 144.447 144.331 144.713C144.405 144.755 144.461 144.825 144.487 144.908C144.513 144.992 144.507 145.083 144.47 145.162L144.357 145.296Z" fill="#263238"/>
<path d="M143.899 156.432C143.873 156.486 143.834 156.532 143.786 156.565C143.737 156.598 143.681 156.617 143.623 156.62C143.22 156.625 142.823 156.727 142.465 156.919C142.106 157.11 141.796 157.386 141.558 157.725C141.536 157.762 141.507 157.794 141.473 157.82C141.439 157.845 141.4 157.864 141.359 157.874C141.318 157.884 141.276 157.885 141.234 157.878C141.193 157.871 141.153 157.856 141.117 157.832C141.081 157.811 141.049 157.782 141.024 157.748C140.999 157.714 140.98 157.675 140.97 157.633C140.959 157.591 140.957 157.547 140.963 157.504C140.969 157.462 140.983 157.42 141.005 157.383C141.296 156.949 141.684 156.593 142.135 156.346C142.586 156.099 143.087 155.969 143.597 155.965C143.638 155.961 143.68 155.966 143.72 155.979C143.76 155.993 143.796 156.015 143.828 156.043C143.859 156.072 143.885 156.106 143.903 156.145C143.921 156.184 143.932 156.227 143.934 156.27C143.935 156.326 143.923 156.381 143.899 156.432Z" fill="#263238"/>
<path d="M134.413 145.539C134.347 145.529 134.286 145.498 134.24 145.449C134.194 145.375 134.179 145.286 134.196 145.2C134.214 145.114 134.264 145.039 134.335 144.991C134.761 144.698 135.248 144.516 135.756 144.458C136.264 144.4 136.778 144.469 137.255 144.659C137.332 144.696 137.392 144.763 137.422 144.845C137.453 144.927 137.452 145.018 137.419 145.099C137.383 145.178 137.319 145.241 137.241 145.272C137.162 145.304 137.074 145.303 136.996 145.269C136.615 145.127 136.206 145.08 135.804 145.132C135.402 145.183 135.017 145.332 134.68 145.566C134.637 145.582 134.59 145.588 134.544 145.583C134.497 145.578 134.453 145.563 134.413 145.539Z" fill="#263238"/>
<path d="M147.364 137.843L147.217 140.941C147.734 141.151 148.157 141.556 148.4 142.075C148.644 142.595 148.69 143.19 148.53 143.743C147.761 146.437 149.455 150.307 151.477 151.753C151.477 151.753 151.477 150.631 152.384 150.855C153.291 151.08 153.481 156.899 151.9 159.835C151.9 159.835 154.406 157.141 155.486 150.855C156.488 145.09 156.35 140.357 155.054 138.283L147.364 137.843Z" fill="#E0E0E0"/>
<path d="M145.852 148.933C145.854 149.778 145.538 150.589 144.971 151.194C144.404 151.798 143.631 152.147 142.819 152.166H142.733C142.638 152.175 142.543 152.175 142.448 152.166C142.188 152.147 141.932 152.089 141.687 151.995C141.413 151.9 141.156 151.757 140.927 151.573C140.528 151.258 140.205 150.85 139.983 150.383C139.761 149.915 139.646 149.401 139.648 148.879C139.643 148.011 139.965 147.175 140.544 146.549C141.124 145.924 141.915 145.558 142.75 145.53C143.047 145.565 143.338 145.643 143.614 145.763C143.868 145.851 144.11 145.975 144.331 146.132C144.436 146.199 144.535 146.277 144.625 146.365C145.003 146.669 145.31 147.057 145.523 147.502C145.736 147.947 145.848 148.437 145.852 148.933Z" fill="#263238"/>
<path d="M138.94 149.831C138.942 150.676 138.626 151.487 138.059 152.092C137.492 152.696 136.719 153.045 135.907 153.064H135.821C135.726 153.073 135.631 153.073 135.536 153.064C135.276 153.045 135.02 152.987 134.775 152.893C134.495 152.795 134.233 152.649 133.998 152.462C133.594 152.149 133.266 151.743 133.04 151.275C132.814 150.808 132.695 150.292 132.693 149.768C132.688 148.9 133.01 148.064 133.589 147.438C134.168 146.813 134.96 146.447 135.795 146.419H135.855C136.135 146.452 136.409 146.528 136.668 146.643C136.907 146.736 137.136 146.856 137.35 147.003C137.461 147.073 137.565 147.154 137.661 147.245C138.051 147.545 138.37 147.934 138.592 148.383C138.813 148.831 138.933 149.327 138.94 149.831Z" fill="#263238"/>
<path d="M138.56 149.4C138.724 149.4 153.377 147.865 153.377 147.865L153.032 148.493L138.517 149.912L138.56 149.4Z" fill="#263238"/>
<path d="M157.473 151.232C157.199 152.057 156.771 152.817 156.214 153.469C155.656 154.121 154.98 154.652 154.224 155.031C152.202 156.036 150.768 154.249 151.036 152.049C151.269 150.101 152.574 147.164 154.768 147.101C156.963 147.039 158.112 149.185 157.473 151.232Z" fill="#B97964"/>
<path opacity="0.2" d="M143.58 145.709L141.696 151.933V151.978C141.422 151.882 141.165 151.739 140.936 151.555V151.466L142.733 145.503C143.023 145.531 143.308 145.6 143.58 145.709Z" fill="white"/>
<path opacity="0.2" d="M144.616 146.374L142.819 152.211H142.733C142.638 152.22 142.543 152.22 142.448 152.211L144.314 146.141C144.419 146.208 144.517 146.286 144.608 146.374H144.616Z" fill="white"/>
<path opacity="0.2" d="M136.702 146.616L134.775 152.902C134.495 152.804 134.232 152.658 133.998 152.471L135.855 146.401C136.135 146.434 136.409 146.51 136.668 146.625L136.702 146.616Z" fill="white"/>
<path opacity="0.2" d="M137.696 147.272L135.907 153.091H135.821C135.726 153.1 135.631 153.1 135.536 153.091L137.385 147.065C137.494 147.124 137.599 147.193 137.696 147.272Z" fill="white"/>
<path d="M134.896 140.708L134.326 138.84C134.181 138.84 134.038 138.802 133.91 138.73C133.783 138.658 133.675 138.553 133.597 138.426C133.518 138.299 133.472 138.154 133.462 138.003C133.452 137.852 133.479 137.702 133.54 137.565C133.92 136.388 134.62 136.738 134.62 136.738C134.507 136.597 134.424 136.433 134.377 136.257C134.329 136.08 134.318 135.895 134.344 135.713C134.37 135.532 134.433 135.358 134.528 135.204C134.623 135.049 134.749 134.917 134.896 134.817C135.168 134.535 135.536 134.378 135.92 134.378C136.304 134.378 136.672 134.535 136.944 134.817C136.897 134.453 136.989 134.084 137.201 133.79C137.412 133.497 137.727 133.301 138.076 133.245C138.229 133.194 138.39 133.175 138.551 133.189C138.711 133.204 138.867 133.251 139.009 133.329C139.152 133.407 139.278 133.513 139.38 133.642C139.482 133.771 139.559 133.92 139.605 134.08C139.605 134.08 139.959 132.509 141.238 132.796C142.517 133.084 142.448 134.08 142.448 134.08C142.605 133.714 142.854 133.399 143.169 133.167C143.483 132.935 143.852 132.794 144.236 132.76C144.611 132.802 144.968 132.947 145.271 133.178C145.575 133.41 145.814 133.721 145.964 134.08C146.14 133.621 146.463 133.239 146.878 132.998C147.294 132.758 147.777 132.674 148.245 132.76C149.973 133.021 149.653 134.476 149.653 134.476C149.653 134.476 150.224 133.407 151.693 134.027C153.161 134.646 152.729 135.823 152.729 135.823C152.988 135.583 153.32 135.446 153.666 135.437C154.012 135.427 154.351 135.544 154.621 135.769C155.65 136.55 155.149 138.364 155.149 138.364L153.637 141.489L147.234 140.941C146.813 140.634 146.354 140.386 145.869 140.205C144.573 139.585 149.507 137.556 145.964 136.945C144.438 136.668 142.869 136.775 141.39 137.256C139.912 137.737 138.565 138.579 137.462 139.711C135.596 141.66 134.896 140.708 134.896 140.708Z" fill="#E0E0E0"/>
<path d="M170.968 193.492C170.968 193.492 170.182 190.277 169.24 190.286C167.797 190.286 161.266 191.93 160.79 193.106C160.315 194.282 162.726 201.035 164.54 201.296C166.355 201.556 172.411 199.724 172.074 198.404L170.968 193.492Z" fill="#407BFF"/>
<path opacity="0.7" d="M170.968 193.492C170.968 193.492 170.182 190.277 169.24 190.286C167.797 190.286 161.266 191.93 160.79 193.106C160.315 194.282 162.726 201.035 164.54 201.296C166.355 201.556 172.411 199.724 172.074 198.404L170.968 193.492Z" fill="white"/>
<path d="M138.171 171.895C138.171 171.895 137.679 177.777 144.012 177.777C150.345 177.777 153.619 171.671 153.619 171.671L155.442 171.778C154.565 174.044 153.038 175.974 151.069 177.306C149.099 178.638 146.783 179.307 144.435 179.223C135.864 179.223 136.659 171.958 136.659 171.958L138.171 171.895Z" fill="#407BFF"/>
<path opacity="0.6" d="M138.171 171.895C138.171 171.895 137.679 177.777 144.012 177.777C150.345 177.777 153.619 171.671 153.619 171.671L155.442 171.778C154.565 174.044 153.038 175.974 151.069 177.306C149.099 178.638 146.783 179.307 144.435 179.223C135.864 179.223 136.659 171.958 136.659 171.958L138.171 171.895Z" fill="white"/>
</svg>
